<svg xmlns="http://www.w3.org/2000/svg" version="1.1" xmlns:xlink="http://www.w3.org/1999/xlink" xmlns:svgjs="http://svgjs.dev/svgjs" width="1440" height="560" preserveAspectRatio="none" viewBox="0 0 1440 560"><g mask="url(&quot;#SvgjsMask1011&quot;)" fill="none"><path d="M66.278,439.512C89.792,438.844,110.642,425.732,122.66,405.511C134.968,384.802,138.562,359.042,126.496,338.191C114.448,317.372,90.312,307.092,66.278,308.078C43.89,308.997,25.822,323.739,14.053,342.806C1.513,363.122,-7.289,387.875,4.056,408.882C15.829,430.683,41.511,440.216,66.278,439.512" fill="rgba(237, 220, 209, 1)" class="triangle-float3"></path><path d="M1445.795,745.771C1505.08,747.048,1564.404,724.058,1595.14,673.346C1626.921,620.909,1625.207,554.331,1593.707,501.725C1563.034,450.5,1505.474,422.148,1445.795,423.938C1389.103,425.639,1340.58,460.885,1312.497,510.162C1284.711,558.917,1279.558,618.303,1307.191,667.145C1335.225,716.695,1388.877,744.545,1445.795,745.771" fill="rgba(237, 220, 209, 1)" class="triangle-float2"></path><path d="M837.204,423.611C868.039,423.304,899.678,413.643,915.432,387.134C931.479,360.132,928.353,325.55,911.067,299.325C895.327,275.445,865.787,269.464,837.204,268.454C806.053,267.353,771.119,267.908,753.71,293.764C734.756,321.915,737.874,360.176,756.229,388.721C773.266,415.217,805.705,423.925,837.204,423.611" fill="rgba(237, 220, 209, 1)" class="triangle-float3"></path><path d="M652.697,205.027C687.95,203.049,714.03,175.218,730.365,143.916C745.329,115.24,745.5,82.703,731.827,53.389C715.259,17.87,691.873,-21.438,652.697,-22.594C612.401,-23.783,584.085,12.934,565.046,48.469C547.276,81.634,539.929,120.738,558.31,153.569C577.072,187.081,614.35,207.178,652.697,205.027" fill="rgba(237, 220, 209, 1)" class="triangle-float3"></path><path d="M1191.852,275.406C1231.919,277.385,1268.743,252.675,1288.067,217.52C1306.721,183.584,1302.657,142.714,1283.192,109.236C1263.839,75.951,1230.354,52.04,1191.852,52.042C1153.354,52.044,1118.217,75.052,1100.533,109.248C1084.114,140.997,1093.589,177.44,1110.804,208.764C1128.859,241.616,1154.411,273.557,1191.852,275.406" fill="rgba(237, 220, 209, 1)" class="triangle-float3"></path><path d="M858.564,485.788C877.32,485.061,894.823,476.894,904.928,461.076C915.92,443.871,920.78,421.962,910.675,404.222C900.49,386.34,879.119,378.685,858.564,379.678C839.703,380.59,824.479,392.837,814.504,408.87C803.79,426.092,795.445,447.329,805.527,464.929C815.647,482.597,838.218,486.577,858.564,485.788" fill="rgba(237, 220, 209, 1)" class="triangle-float1"></path><path d="M366.641,390.371C409.856,391.797,458.383,389.347,481.739,352.959C506.428,314.495,495.304,265,472.558,225.356C449.686,185.493,412.598,152.595,366.641,152.355C320.336,152.113,280.496,183.336,258.787,224.238C238.412,262.627,240.318,309.323,263.983,345.776C285.757,379.315,326.676,389.053,366.641,390.371" fill="rgba(237, 220, 209, 1)" class="triangle-float3"></path><path d="M1401.69,668.332C1454.54,665.134,1496.301,629.157,1523.275,583.596C1550.887,536.958,1565.342,481.389,1541.056,432.936C1514.33,379.615,1461.288,338.678,1401.69,341.023C1344.994,343.253,1308.548,394.105,1280.105,443.201C1251.559,492.475,1224.578,549.925,1251.638,600.031C1279.627,651.857,1342.897,671.889,1401.69,668.332" fill="rgba(237, 220, 209, 1)" class="triangle-float1"></path><path d="M390,283.587C442.455,283.45,482.111,242.674,509.06,197.671C536.984,151.04,558.053,94.66,531.553,47.205C504.583,-1.092,445.317,-15.754,390,-15.538C335.14,-15.324,277.218,0.474,250.346,48.302C223.876,95.414,242.279,151.824,269.861,198.294C296.729,243.56,337.361,283.724,390,283.587" fill="rgba(237, 220, 209, 1)" class="triangle-float3"></path></g><defs><mask id="SvgjsMask1011"><rect width="1440" height="560" fill="#ffffff"></rect></mask><style>
                @keyframes float1 {
                    0%{transform: translate(0, 0)}
                    50%{transform: translate(-10px, 0)}
                    100%{transform: translate(0, 0)}
                }

                .triangle-float1 {
                    animation: float1 5s infinite;
                }

                @keyframes float2 {
                    0%{transform: translate(0, 0)}
                    50%{transform: translate(-5px, -5px)}
                    100%{transform: translate(0, 0)}
                }

                .triangle-float2 {
                    animation: float2 4s infinite;
                }

                @keyframes float3 {
                    0%{transform: translate(0, 0)}
                    50%{transform: translate(0, -10px)}
                    100%{transform: translate(0, 0)}
                }

                .triangle-float3 {
                    animation: float3 6s infinite;
                }
            </style></defs></svg>