<svg width="635" height="111" viewBox="0 0 635 111" fill="none" xmlns="http://www.w3.org/2000/svg">
<path d="M-0.000452995 88.3201V5.88806H14.3355L40.4475 59.2641L66.4315 5.88806H80.7675V88.3201H66.9436V28.5441L44.6716 74.1121H36.2235L13.8235 28.5441V88.3201H-0.000452995ZM115.819 89.6001C111.979 89.6001 108.395 88.9174 105.067 87.5521C101.824 86.1867 99.2212 84.1387 97.2585 81.4081C95.2959 78.5921 94.3145 75.1361 94.3145 71.0401C94.3145 65.2374 96.2772 60.5867 100.203 57.0881C104.213 53.5041 110.357 51.7121 118.635 51.7121H138.091V49.0241C138.091 46.1227 137.621 43.8187 136.683 42.1121C135.829 40.4054 134.208 39.1681 131.819 38.4001C129.515 37.6321 126.101 37.2481 121.579 37.2481C114.411 37.2481 107.712 38.3147 101.483 40.4481V30.0801C104.213 28.9707 107.541 28.0747 111.467 27.3921C115.392 26.7094 119.616 26.3681 124.139 26.3681C133.013 26.3681 139.755 28.1601 144.363 31.7441C149.056 35.3281 151.403 41.1734 151.403 49.2801V88.3201H139.499L138.603 82.1761C136.128 84.5654 133.056 86.4001 129.387 87.6801C125.803 88.9601 121.28 89.6001 115.819 89.6001ZM119.531 79.6161C123.712 79.6161 127.339 78.9334 130.411 77.5681C133.568 76.1174 136.128 74.1974 138.091 71.8081V61.1841H118.891C114.795 61.1841 111.808 61.9947 109.931 63.6161C108.139 65.1521 107.243 67.5414 107.243 70.7841C107.243 73.9414 108.309 76.2027 110.443 77.5681C112.576 78.9334 115.605 79.6161 119.531 79.6161ZM191.451 110.848C186.928 110.848 182.405 110.549 177.883 109.952C173.36 109.44 169.52 108.629 166.363 107.52V96.7681C169.776 97.8774 173.701 98.7307 178.139 99.3281C182.576 99.9254 186.8 100.224 190.811 100.224C196.955 100.224 201.435 99.8827 204.251 99.2001C207.067 98.5174 208.475 96.9814 208.475 94.5921C208.475 92.8001 207.792 91.5201 206.427 90.7521C205.061 90.0694 202.459 89.7281 198.619 89.7281H182.235C171.227 89.7281 165.723 85.8454 165.723 78.0801C165.723 75.6054 166.448 73.3014 167.899 71.1681C169.349 69.0347 171.653 67.4134 174.811 66.3041C171.312 64.5974 168.709 62.2507 167.003 59.2641C165.381 56.2774 164.571 52.6934 164.571 48.5121C164.571 40.7467 166.875 35.1147 171.483 31.6161C176.176 28.1174 183.173 26.3681 192.475 26.3681C194.437 26.3681 196.485 26.5387 198.619 26.8801C200.752 27.1361 202.416 27.3921 203.611 27.6481H225.883L225.499 36.7361H215.259C216.88 38.1014 218.075 39.8081 218.843 41.8561C219.611 43.9041 219.995 46.1227 219.995 48.5121C219.995 54.9974 218.032 60.1174 214.107 63.8721C210.181 67.5414 204.251 69.3761 196.315 69.3761C194.949 69.3761 193.669 69.3334 192.475 69.2481C191.365 69.0774 190.128 68.9067 188.763 68.7361C186.203 68.9921 183.899 69.6747 181.851 70.7841C179.803 71.8934 178.779 73.3867 178.779 75.2641C178.779 76.5441 179.291 77.4827 180.315 78.0801C181.339 78.5921 183.045 78.8481 185.435 78.8481H202.459C208.517 78.8481 213.168 80.1707 216.411 82.8161C219.739 85.3761 221.403 89.1307 221.403 94.0801C221.403 100.053 218.8 104.32 213.595 106.88C208.475 109.525 201.093 110.848 191.451 110.848ZM192.475 60.5441C198.021 60.5441 201.861 59.6054 203.995 57.7281C206.213 55.8507 207.323 52.6507 207.323 48.1281C207.323 43.6054 206.213 40.3201 203.995 38.2721C201.861 36.2241 198.021 35.2001 192.475 35.2001C187.269 35.2001 183.472 36.1814 181.083 38.1441C178.693 40.1067 177.499 43.4347 177.499 48.1281C177.499 52.4801 178.608 55.6374 180.827 57.6001C183.131 59.5627 187.013 60.5441 192.475 60.5441ZM239.62 14.9761V3.45606H254.852V14.9761H239.62ZM240.772 88.3201V38.2721H231.556L232.836 27.6481H254.724V88.3201H240.772ZM300.824 89.6001C290.157 89.6001 282.093 86.9121 276.632 81.5361C271.17 76.0747 268.44 68.2241 268.44 57.9841C268.44 47.3174 271.426 39.3814 277.4 34.1761C283.458 28.9707 291.522 26.3681 301.592 26.3681C305.773 26.3681 309.272 26.6667 312.088 27.2641C314.989 27.8614 317.762 28.8001 320.408 30.0801V40.4481C315.97 38.2294 310.594 37.1201 304.28 37.1201C297.282 37.1201 291.906 38.6987 288.152 41.8561C284.397 44.9281 282.52 50.3041 282.52 57.9841C282.52 65.2374 284.184 70.5707 287.512 73.9841C290.84 77.3121 296.344 78.9761 304.024 78.9761C310.082 78.9761 315.586 77.8241 320.536 75.5201V86.1441C317.72 87.2534 314.69 88.1067 311.448 88.7041C308.29 89.3014 304.749 89.6001 300.824 89.6001ZM350.569 89.6001C346.729 89.6001 343.145 88.9174 339.817 87.5521C336.574 86.1867 333.971 84.1387 332.009 81.4081C330.046 78.5921 329.065 75.1361 329.065 71.0401C329.065 65.2374 331.027 60.5867 334.953 57.0881C338.963 53.5041 345.107 51.7121 353.385 51.7121H372.841V49.0241C372.841 46.1227 372.371 43.8187 371.433 42.1121C370.579 40.4054 368.958 39.1681 366.569 38.4001C364.265 37.6321 360.851 37.2481 356.329 37.2481C349.161 37.2481 342.462 38.3147 336.233 40.4481V30.0801C338.963 28.9707 342.291 28.0747 346.217 27.3921C350.142 26.7094 354.366 26.3681 358.889 26.3681C367.763 26.3681 374.505 28.1601 379.113 31.7441C383.806 35.3281 386.153 41.1734 386.153 49.2801V88.3201H374.249L373.353 82.1761C370.878 84.5654 367.806 86.4001 364.137 87.6801C360.553 88.9601 356.03 89.6001 350.569 89.6001ZM354.281 79.6161C358.462 79.6161 362.089 78.9334 365.161 77.5681C368.318 76.1174 370.878 74.1974 372.841 71.8081V61.1841H353.641C349.545 61.1841 346.558 61.9947 344.681 63.6161C342.889 65.1521 341.993 67.5414 341.993 70.7841C341.993 73.9414 343.059 76.2027 345.193 77.5681C347.326 78.9334 350.355 79.6161 354.281 79.6161ZM416.729 89.6001C411.779 89.6001 408.025 88.4054 405.465 86.0161C402.905 83.5414 401.625 79.4881 401.625 73.8561V2.04807H415.577V72.5761C415.577 74.9654 416.003 76.5867 416.857 77.4401C417.71 78.2934 418.99 78.7201 420.697 78.7201C422.745 78.7201 424.707 78.4641 426.585 77.9521V88.0641C424.963 88.6614 423.385 89.0454 421.849 89.2161C420.398 89.4721 418.691 89.6001 416.729 89.6001ZM470.712 88.3201V38.5281H461.88V27.6481H470.712V20.2241C470.712 14.1654 472.376 9.3014 475.704 5.63206C479.117 1.8774 484.152 6.10352e-05 490.808 6.10352e-05C493.282 6.10352e-05 495.544 0.213394 497.592 0.64006C499.64 0.981394 501.517 1.4934 503.224 2.17606V12.1601C500.578 11.2214 497.89 10.7521 495.16 10.7521C491.149 10.7521 488.376 11.4774 486.84 12.9281C485.304 14.3787 484.536 16.8534 484.536 20.3521V27.6481H500.408L499.768 38.5281H484.536V88.3201H470.712ZM537.681 89.6001C526.758 89.6001 518.737 86.8694 513.617 81.4081C508.582 75.9467 506.065 68.1387 506.065 57.9841C506.065 47.8294 508.625 40.0214 513.745 34.5601C518.865 29.0987 526.843 26.3681 537.681 26.3681C548.603 26.3681 556.625 29.0987 561.745 34.5601C566.865 40.0214 569.425 47.8294 569.425 57.9841C569.425 68.1387 566.865 75.9467 561.745 81.4081C556.71 86.8694 548.689 89.6001 537.681 89.6001ZM537.681 77.8241C544.081 77.8241 548.603 76.2881 551.249 73.2161C553.979 70.0587 555.345 64.9814 555.345 57.9841C555.345 50.9867 553.979 45.9521 551.249 42.8801C548.603 39.8081 544.081 38.2721 537.681 38.2721C531.366 38.2721 526.843 39.8081 524.113 42.8801C521.467 45.9521 520.145 50.9867 520.145 57.9841C520.145 64.9814 521.467 70.0587 524.113 73.2161C526.843 76.2881 531.366 77.8241 537.681 77.8241ZM573.026 88.3201L596.194 57.4721L573.922 27.6481H588.898L603.746 47.8721L618.594 27.6481H633.57L611.426 57.4721L634.466 88.3201H619.362L603.746 67.2001L588.13 88.3201H573.026Z" fill="black"/>
</svg>
