<svg xmlns="http://www.w3.org/2000/svg" version="1.1" xmlns:xlink="http://www.w3.org/1999/xlink" xmlns:svgjs="http://svgjs.dev/svgjs" width="1440" height="560" preserveAspectRatio="none" viewBox="0 0 1440 560"><g mask="url(&quot;#SvgjsMask1080&quot;)" fill="none"><path d="M1023.06 360.88 a103.05 103.05 0 1 0 206.1 0 a103.05 103.05 0 1 0 -206.1 0z" fill="rgba(237, 220, 209, 1)" class="triangle-float1"></path><path d="M-153.71 282.34 a166.77 166.77 0 1 0 333.54 0 a166.77 166.77 0 1 0 -333.54 0z" fill="rgba(237, 220, 209, 1)" class="triangle-float3"></path><path d="M188.14 417.9 a131.32 131.32 0 1 0 262.64 0 a131.32 131.32 0 1 0 -262.64 0z" fill="rgba(237, 220, 209, 1)" class="triangle-float2"></path><path d="M1269.11 266.47 a102.67 102.67 0 1 0 205.34 0 a102.67 102.67 0 1 0 -205.34 0z" fill="rgba(237, 220, 209, 1)" class="triangle-float2"></path><path d="M247.69 386.82 a95.67 95.67 0 1 0 191.34 0 a95.67 95.67 0 1 0 -191.34 0z" fill="rgba(237, 220, 209, 1)" class="triangle-float3"></path><path d="M1065.23 240.83 a136.89 136.89 0 1 0 273.78 0 a136.89 136.89 0 1 0 -273.78 0z" fill="rgba(237, 220, 209, 1)" class="triangle-float2"></path><path d="M621.61 168.36 a131.51 131.51 0 1 0 263.02 0 a131.51 131.51 0 1 0 -263.02 0z" fill="rgba(237, 220, 209, 1)" class="triangle-float2"></path></g><defs><mask id="SvgjsMask1080"><rect width="1440" height="560" fill="#ffffff"></rect></mask><style>
                @keyframes float1 {
                    0%{transform: translate(0, 0)}
                    50%{transform: translate(-10px, 0)}
                    100%{transform: translate(0, 0)}
                }

                .triangle-float1 {
                    animation: float1 5s infinite;
                }

                @keyframes float2 {
                    0%{transform: translate(0, 0)}
                    50%{transform: translate(-5px, -5px)}
                    100%{transform: translate(0, 0)}
                }

                .triangle-float2 {
                    animation: float2 4s infinite;
                }

                @keyframes float3 {
                    0%{transform: translate(0, 0)}
                    50%{transform: translate(0, -10px)}
                    100%{transform: translate(0, 0)}
                }

                .triangle-float3 {
                    animation: float3 6s infinite;
                }
            </style></defs></svg>